<?xml version="1.0" encoding="UTF-8" standalone="no"?>
<!-- Created with Inkscape (http://www.inkscape.org/) -->
<svg
   xmlns:svg="http://www.w3.org/2000/svg"
   xmlns="http://www.w3.org/2000/svg"
   version="1.0"
   width="750"
   height="600"
   id="svg2450">
  <defs
     id="defs2453" />
  <path
     d="M 49.593496,600 C 12.021823,606.01223 0.374478,584.2484 0,550.4065 L 0,50 C 0.26436,7.306444 22.977953,0.531662 49.593496,0 L 700,0 C 737.99534,1.025643 751.96677,19.66882 750,50 L 750,550.4065 C 750.61508,591.42014 731.34035,604.25656 700,600 L 49.593496,600 z"
     id="path2477"
     style="fill:#000000;fill-opacity:1;fill-rule:evenodd;stroke:#000000;stroke-width:1px;stroke-linecap:butt;stroke-linejoin:miter;stroke-opacity:1" />
  <path
     d="M 376,580 C 120.0594,566.76664 10.515234,350.74039 13,201 C 25.291003,120.21718 21.978524,25.547435 376,19 C 654.93316,28.316194 722.07201,66.834005 735,201 C 734.63343,336.58827 649.04448,559.11396 376,580 z"
     id="path2475"
     style="fill:#ffffff;fill-opacity:1;fill-rule:evenodd;stroke:none;stroke-width:1px;stroke-linecap:butt;stroke-linejoin:miter;stroke-opacity:1" />
  <path
     d="M 266.04757,331.75287 L 266.04757,401.89337 L 224.48919,401.89337 L 224.48919,331.75287 L 104.10864,331.75287 L 104.10864,302.29861 L 224.48919,111.77756 L 266.04757,111.77756 L 266.04757,292.77124 L 283.37127,292.77124 L 283.37127,331.75287 L 266.04757,331.75287 z M 224.48919,184.09839 L 155.20761,292.77124 L 224.48919,292.77124 L 224.48919,184.09839 z M 489.08856,300.14471 C 489.08838,315.43793 486.77811,329.57922 482.15776,342.56862 C 477.53705,355.55814 471.18548,366.81655 463.10301,376.34389 C 455.02023,385.87128 445.49507,393.37689 434.52749,398.86073 C 423.55966,404.34459 411.57888,407.08651 398.58511,407.08652 C 385.59997,407.08651 373.11705,404.9216 361.13632,400.59178 C 349.15548,396.26196 337.8266,389.91259 327.14962,381.54364 L 354.42355,352.1026 C 361.6384,357.00948 368.27849,360.61693 374.34382,362.92496 C 380.40903,365.23306 387.04911,366.38709 394.26409,366.38705 C 402.05152,366.38709 409.26642,364.72652 415.90881,361.40533 C 422.55099,358.08423 428.25287,353.39323 433.01448,347.33231 C 437.77583,341.27149 441.52864,334.0566 444.2729,325.68759 C 447.01689,317.31874 448.38896,308.08208 448.38909,297.9776 C 448.38896,282.09436 444.7793,269.67971 437.56013,260.73363 C 430.3407,251.78782 420.67018,247.31485 408.54855,247.3147 C 395.8453,247.31485 384.30058,252.07633 373.91436,261.59915 L 334.07382,256.40601 L 341.43408,111.77756 L 477.83013,111.77756 L 477.83013,152.49023 L 379.96643,152.49023 L 376.94039,213.53943 C 384.15522,210.94084 390.00026,209.28027 394.47552,208.55771 C 398.95061,207.83553 403.93232,207.47435 409.42068,207.47415 C 421.2516,207.47435 432.07395,209.71193 441.88775,214.18692 C 451.70129,218.66228 460.07242,225.01386 467.00117,233.24167 C 473.9296,241.46982 479.34298,251.21301 483.24131,262.47128 C 487.1393,273.72983 489.08838,286.28763 489.08856,300.14471 L 489.08856,300.14471 z M 557.52004,401.89337 L 557.52004,163.74866 L 539.33743,163.74866 L 539.33743,132.1405 C 547.70633,131.55935 554.41689,129.5376 559.46913,126.07523 C 564.52127,122.61341 568.63306,117.84752 571.8045,111.77756 L 599.5277,111.77756 L 599.5277,401.89337 L 557.52004,401.89337 z"
     id="text3960"
     style="font-size:433px;font-style:normal;font-variant:normal;font-weight:normal;font-stretch:normal;text-align:center;line-height:100%;writing-mode:lr-tb;text-anchor:middle;fill:#000000;fill-opacity:1;stroke:none;stroke-width:1px;stroke-linecap:butt;stroke-linejoin:miter;stroke-opacity:1;font-family:Arial;-inkscape-font-specification:Arial" />
</svg>
