<?xml version="1.0" encoding="UTF-8"?>
<svg width="10px" height="17px" viewBox="0 0 10 17" version="1.1" xmlns="http://www.w3.org/2000/svg" xmlns:xlink="http://www.w3.org/1999/xlink">
    <g id="Page-1" stroke="none" stroke-width="1" fill="none" fill-rule="evenodd">
        <g id="Route-4---Expanded-Copy-2" transform="translate(-878.000000, -918.000000)" fill="#FFFFFF" fill-rule="nonzero">
            <g id="Group-11" transform="translate(0.000000, 656.000000)">
                <g id="Group-10" transform="translate(761.000000, 194.000000)">
                    <g id="Group-5">
                        <g id="Group-7" transform="translate(62.000000, 61.000000)">
                            <path d="M55,16.2457933 L55,13.2217548 L57.6590693,13.2217548 L57.6590693,10.9945913 C57.6590693,9.72775809 58.0205601,8.74529596 58.7435525,8.04717548 C59.4665449,7.349055 60.4293617,7 61.6320317,7 C62.6539537,7 63.4464527,7.04086498 64.0095525,7.12259615 L64.0095525,9.81971154 L62.3724001,9.81971154 C61.774541,9.81971154 61.3713397,9.94230647 61.1627842,10.1875 C60.9542287,10.4326935 60.8499525,10.8004783 60.8499525,11.2908654 L60.8499525,13.2217548 L63.9052753,13.2217548 L63.4985941,16.2457933 L60.8499525,16.2457933 L60.8499525,24 L57.6590693,24 L57.6590693,16.2457933 L55,16.2457933 Z" id="facebook"></path>
                        </g>
                    </g>
                </g>
            </g>
        </g>
    </g>
</svg>