<?xml version="1.0" encoding="UTF-8"?>
<svg width="30px" height="30px" viewBox="0 0 30 30" version="1.1" xmlns="http://www.w3.org/2000/svg" xmlns:xlink="http://www.w3.org/1999/xlink">
    <g id="Page-1" stroke="none" stroke-width="1" fill="none" fill-rule="evenodd">
        <g id="Route-4---Expanded" transform="translate(-955.000000, -911.000000)" fill-rule="nonzero">
            <g id="icn_reddit" transform="translate(955.000000, 911.000000)">
                <circle id="Oval" fill="#FF4500" cx="15" cy="15" r="15"></circle>
                <path d="M24.0048981,15.1197594 C23.9764831,14.3425491 23.4942377,13.6545068 22.773348,13.3626486 C22.0524583,13.0707904 21.2273777,13.229551 20.6662713,13.7680886 C19.1286396,12.7228617 17.3211611,12.1454075 15.4623388,12.1055335 L16.3409248,7.88832069 L19.2335002,8.49657254 C19.3045341,9.15687714 19.8447288,9.66775963 20.507966,9.70188281 C21.1712032,9.73600599 21.7609761,9.2832597 21.8994002,8.6337316 C22.0378242,7.98420349 21.6838865,7.33033854 21.0643652,7.09108696 C20.4448439,6.85183538 19.7432934,7.09808364 19.4092174,7.67205337 L16.097624,7.00973469 C15.9882261,6.98573517 15.8737733,7.00653061 15.7798101,7.06747975 C15.6858468,7.1284289 15.6201945,7.22445834 15.5975059,7.33413567 L14.5972695,12.0244333 C12.7155841,12.0528011 10.8832461,12.6306923 9.32575344,13.6869883 C8.75634717,13.1512356 7.92434611,13.0021476 7.20433738,13.3068472 C6.48432865,13.6115468 6.01208752,14.3125756 6.00022843,15.0943133 C5.98836935,15.876051 6.43912863,16.5910818 7.14956348,16.9174815 C7.13434461,17.1154345 7.13434461,17.3142637 7.14956348,17.5122166 C7.14956348,20.5399592 10.6774242,23 15.0298041,23 C19.382184,23 22.9100448,20.5399592 22.9100448,17.5122166 C22.9252636,17.3142637 22.9252636,17.1154345 22.9100448,16.9174815 C23.5907847,16.5791323 24.016659,15.8798572 24.0048981,15.1197594 Z M10.4881903,16.4714301 C10.4881903,15.724923 11.0933539,15.1197594 11.8398611,15.1197594 C12.5863682,15.1197594 13.1915319,15.724923 13.1915319,16.4714301 C13.1915319,17.2179373 12.5863682,17.8231009 11.8398611,17.8231009 C11.4813757,17.8231009 11.137573,17.6806932 10.8840855,17.4272057 C10.6305981,17.1737183 10.4881903,16.8299155 10.4881903,16.4714301 Z M18.3413975,20.1885248 C17.3824182,20.9112013 16.202534,21.2790195 15.0027707,21.2293113 C13.8030075,21.2790195 12.6231232,20.9112013 11.6641439,20.1885248 C11.5450602,20.0434288 11.5554608,19.831664 11.6881894,19.6989354 C11.820918,19.5662068 12.0326828,19.5558062 12.1777788,19.6748899 C12.9904434,20.2709755 13.9824183,20.5714295 14.989254,20.5264425 C15.9973291,20.581264 16.9939253,20.2903914 17.8142459,19.7019233 C17.910827,19.6077567 18.0503089,19.5722686 18.1801501,19.608827 C18.3099913,19.6453854 18.4104658,19.7484362 18.4437259,19.8791612 C18.476986,20.0098862 18.4379786,20.148425 18.3413975,20.2425916 L18.3413975,20.1885248 Z M18.0980968,17.8771677 C17.3515896,17.8771677 16.746426,17.2720041 16.746426,16.525497 C16.746426,15.7789898 17.3515896,15.1738262 18.0980968,15.1738262 C18.844604,15.1738262 19.4497676,15.7789898 19.4497676,16.525497 C19.4646058,16.8956141 19.3269023,17.2556033 19.0688404,17.5213305 C18.8107785,17.7870576 18.4549729,17.935236 18.0845801,17.9312346 L18.0980968,17.8771677 Z" id="Shape" fill="#FFFFFF"></path>
            </g>
        </g>
    </g>
</svg>