<?xml version="1.0" encoding="UTF-8"?>
<svg width="30px" height="30px" viewBox="0 0 30 30" version="1.1" xmlns="http://www.w3.org/2000/svg" xmlns:xlink="http://www.w3.org/1999/xlink">
    <!-- Generator: Sketch 52.2 (67145) - http://www.bohemiancoding.com/sketch -->
    <title>icn_tumblr</title>
    <desc>Created with Sketch.</desc>
    <g id="Page-1" stroke="none" stroke-width="1" fill="none" fill-rule="evenodd">
        <g id="Route-4---Expanded" transform="translate(-911.000000, -911.000000)" fill-rule="nonzero">
            <g id="icn_tumblr" transform="translate(911.000000, 911.000000)">
                <rect id="Rectangle-7-Copy-2" fill="#274061" x="0" y="0" width="30" height="30" rx="15"></rect>
                <path d="M10,13.3195248 L10,11.139339 C10.6412999,10.9383992 11.1874537,10.6570877 11.6384778,10.2953961 C12.0895019,9.92700647 12.4524299,9.48494557 12.7272727,8.9692001 C13.0021155,8.44675665 13.1923885,7.79036318 13.2980973,7 L15.6131078,7 L15.6131078,10.8982124 L19.4608879,10.8982124 L19.4608879,13.3195248 L15.6131078,13.3195248 L15.6131078,17.2780189 C15.6131078,18.188946 15.6624378,18.7649647 15.7610994,19.0060925 C15.8527136,19.2539182 16.0359394,19.454855 16.3107822,19.6089088 C16.6631448,19.8165466 17.0754029,19.9203639 17.5475687,19.9203639 C18.3720971,19.9203639 19.1895661,19.665844 20,19.1567966 L20,21.5881559 C19.2811803,21.9096595 18.6539844,22.127341 18.1183932,22.2412069 C17.5757549,22.3684688 16.9661767,22.4320988 16.2896406,22.4320988 C15.5496792,22.4320988 14.8942946,22.3416772 14.3234672,22.1608314 C13.7737816,21.9933816 13.2875285,21.7422106 12.8646934,21.407311 C12.4559529,21.0657133 12.1775906,20.714074 12.0295983,20.3523823 C11.8745588,19.9906907 11.7970402,19.4515104 11.7970402,18.7348251 L11.7970402,13.3195248 L10,13.3195248 Z" id="tumblr" fill="#FFFFFF"></path>
            </g>
        </g>
    </g>
</svg>