<?xml version="1.0" encoding="UTF-8"?>
<svg width="18px" height="16px" viewBox="0 0 18 16" version="1.1" xmlns="http://www.w3.org/2000/svg" xmlns:xlink="http://www.w3.org/1999/xlink">
    <g id="Page-1" stroke="none" stroke-width="1" fill="none" fill-rule="evenodd">
        <g id="Route-4---Expanded-Copy-2" transform="translate(-961.000000, -918.000000)" fill="#FFFFFF" fill-rule="nonzero">
            <g id="Group-11" transform="translate(0.000000, 656.000000)">
                <g id="Group-10" transform="translate(761.000000, 194.000000)">
                    <g id="Group-5">
                        <g id="Group-7" transform="translate(62.000000, 61.000000)">
                            <path d="M156.004898,15.1197594 C155.976483,14.3425491 155.494238,13.6545068 154.773348,13.3626486 C154.052458,13.0707904 153.227378,13.229551 152.666271,13.7680886 C151.12864,12.7228617 149.321161,12.1454075 147.462339,12.1055335 L148.340925,7.88832069 L151.2335,8.49657254 C151.304534,9.15687714 151.844729,9.66775963 152.507966,9.70188281 C153.171203,9.73600599 153.760976,9.2832597 153.8994,8.6337316 C154.037824,7.98420349 153.683886,7.33033854 153.064365,7.09108696 C152.444844,6.85183538 151.743293,7.09808364 151.409217,7.67205337 L148.097624,7.00973469 C147.988226,6.98573517 147.873773,7.00653061 147.77981,7.06747975 C147.685847,7.1284289 147.620195,7.22445834 147.597506,7.33413567 L146.597269,12.0244333 C144.715584,12.0528011 142.883246,12.6306923 141.325753,13.6869883 C140.756347,13.1512356 139.924346,13.0021476 139.204337,13.3068472 C138.484329,13.6115468 138.012088,14.3125756 138.000228,15.0943133 C137.988369,15.876051 138.439129,16.5910818 139.149563,16.9174815 C139.134345,17.1154345 139.134345,17.3142637 139.149563,17.5122166 C139.149563,20.5399592 142.677424,23 147.029804,23 C151.382184,23 154.910045,20.5399592 154.910045,17.5122166 C154.925264,17.3142637 154.925264,17.1154345 154.910045,16.9174815 C155.590785,16.5791323 156.016659,15.8798572 156.004898,15.1197594 Z M142.48819,16.4714301 C142.48819,15.724923 143.093354,15.1197594 143.839861,15.1197594 C144.586368,15.1197594 145.191532,15.724923 145.191532,16.4714301 C145.191532,17.2179373 144.586368,17.8231009 143.839861,17.8231009 C143.481376,17.8231009 143.137573,17.6806932 142.884086,17.4272057 C142.630598,17.1737183 142.48819,16.8299155 142.48819,16.4714301 Z M150.341398,20.1885248 C149.382418,20.9112013 148.202534,21.2790195 147.002771,21.2293113 C145.803007,21.2790195 144.623123,20.9112013 143.664144,20.1885248 C143.54506,20.0434288 143.555461,19.831664 143.688189,19.6989354 C143.820918,19.5662068 144.032683,19.5558062 144.177779,19.6748899 C144.990443,20.2709755 145.982418,20.5714295 146.989254,20.5264425 C147.997329,20.581264 148.993925,20.2903914 149.814246,19.7019233 C149.910827,19.6077567 150.050309,19.5722686 150.18015,19.608827 C150.309991,19.6453854 150.410466,19.7484362 150.443726,19.8791612 C150.476986,20.0098862 150.437979,20.148425 150.341398,20.2425916 L150.341398,20.1885248 Z M150.098097,17.8771677 C149.35159,17.8771677 148.746426,17.2720041 148.746426,16.525497 C148.746426,15.7789898 149.35159,15.1738262 150.098097,15.1738262 C150.844604,15.1738262 151.449768,15.7789898 151.449768,16.525497 C151.464606,16.8956141 151.326902,17.2556033 151.06884,17.5213305 C150.810779,17.7870576 150.454973,17.935236 150.08458,17.9312346 L150.098097,17.8771677 Z" id="reddit"></path>
                        </g>
                    </g>
                </g>
            </g>
        </g>
    </g>
</svg>