<?xml version="1.0" encoding="UTF-8"?>
<svg width="10px" height="16px" viewBox="0 0 10 16" version="1.1" xmlns="http://www.w3.org/2000/svg" xmlns:xlink="http://www.w3.org/1999/xlink">
    <!-- Generator: Sketch 52.2 (67145) - http://www.bohemiancoding.com/sketch -->
    <title>tumblr</title>
    <desc>Created with Sketch.</desc>
    <g id="Page-1" stroke="none" stroke-width="1" fill="none" fill-rule="evenodd">
        <g id="Route-4---Expanded-Copy-2" transform="translate(-921.000000, -918.000000)" fill="#FFFFFF" fill-rule="nonzero">
            <g id="Group-11" transform="translate(0.000000, 656.000000)">
                <g id="Group-10" transform="translate(761.000000, 194.000000)">
                    <g id="Group-5">
                        <g id="Group-7" transform="translate(62.000000, 61.000000)">
                            <path d="M98,13.3195248 L98,11.139339 C98.6412999,10.9383992 99.1874537,10.6570877 99.6384778,10.2953961 C100.089502,9.92700647 100.45243,9.48494557 100.727273,8.9692001 C101.002116,8.44675665 101.192388,7.79036318 101.298097,7 L103.613108,7 L103.613108,10.8982124 L107.460888,10.8982124 L107.460888,13.3195248 L103.613108,13.3195248 L103.613108,17.2780189 C103.613108,18.188946 103.662438,18.7649647 103.761099,19.0060925 C103.852714,19.2539182 104.035939,19.454855 104.310782,19.6089088 C104.663145,19.8165466 105.075403,19.9203639 105.547569,19.9203639 C106.372097,19.9203639 107.189566,19.665844 108,19.1567966 L108,21.5881559 C107.28118,21.9096595 106.653984,22.127341 106.118393,22.2412069 C105.575755,22.3684688 104.966177,22.4320988 104.289641,22.4320988 C103.549679,22.4320988 102.894295,22.3416772 102.323467,22.1608314 C101.773782,21.9933816 101.287529,21.7422106 100.864693,21.407311 C100.455953,21.0657133 100.177591,20.714074 100.029598,20.3523823 C99.8745588,19.9906907 99.7970402,19.4515104 99.7970402,18.7348251 L99.7970402,13.3195248 L98,13.3195248 Z" id="tumblr"></path>
                        </g>
                    </g>
                </g>
            </g>
        </g>
    </g>
</svg>