<?xml version="1.0" encoding="UTF-8"?>
<svg width="18px" height="14px" viewBox="0 0 18 14" version="1.1" xmlns="http://www.w3.org/2000/svg" xmlns:xlink="http://www.w3.org/1999/xlink">
    <!-- Generator: Sketch 52.2 (67145) - http://www.bohemiancoding.com/sketch -->
    <title>twitter</title>
    <desc>Created with Sketch.</desc>
    <g id="Page-1" stroke="none" stroke-width="1" fill="none" fill-rule="evenodd">
        <g id="Route-4---Expanded-Copy-2" transform="translate(-830.000000, -920.000000)" fill-rule="nonzero">
            <g id="Group-11" transform="translate(0.000000, 656.000000)">
                <g id="Group-10" transform="translate(761.000000, 194.000000)">
                    <g id="Group-5">
                        <g id="Group-7" transform="translate(62.000000, 61.000000)">
                            <g id="twitter" transform="translate(6.000000, 7.000000)">
                                <rect id="Rectangle" x="0" y="0" width="18" height="16"></rect>
                                <path d="M1,14.0837077 C1.25368393,14.1120983 1.53635608,14.1262934 1.84802491,14.1262934 C3.47885019,14.1262934 4.93207493,13.6365622 6.20774271,12.6570849 C5.44669091,12.6428896 4.76537856,12.4139935 4.16378524,11.9703896 C3.56219191,11.5267858 3.1490557,10.9607558 2.92436422,10.2722827 C3.16355192,10.307771 3.38461604,10.3255149 3.58756318,10.3255149 C3.89923202,10.3255149 4.20727217,10.2864783 4.51169289,10.2084041 C3.6999043,10.0451579 3.02765196,9.64946919 2.4949157,9.02132618 C1.96217944,8.39318317 1.69581531,7.66390943 1.69581531,6.83348307 L1.69581531,6.79089732 C2.18868695,7.06060844 2.71779122,7.20610831 3.28314398,7.2274013 C2.80476857,6.91510421 2.42424838,6.50699481 2.14157199,6.00306087 C1.85889561,5.49912693 1.71755954,4.95261522 1.71755954,4.36350934 C1.71755954,3.73891516 1.87701562,3.16046446 2.19593256,2.62813987 C3.07295416,3.68569138 4.1402227,4.53207478 5.3977702,5.16731545 C6.6553177,5.80255612 8.00163438,6.15565947 9.43676063,6.22663608 C9.37877573,5.95692495 9.34978372,5.69431543 9.34978372,5.43879963 C9.34978372,4.48771304 9.69225189,3.67681741 10.3771985,3.00608844 C11.0621451,2.33535946 11.8902295,2 12.8614766,2 C13.8762123,2 14.7314768,2.36197529 15.4272956,3.08593673 C16.2173398,2.93688584 16.9602602,2.66008121 17.656079,2.25551452 C17.3878988,3.07174556 16.8732906,3.70342792 16.1122388,4.15058057 C16.7863132,4.07960396 17.4603775,3.9021651 18.134452,3.61825865 C17.6488285,4.31382944 17.0617402,4.90647526 16.3731695,5.39621388 C16.3804176,5.49558113 16.3840416,5.64462978 16.3840416,5.84336429 C16.3840416,6.76606024 16.2463295,7.68696796 15.9709013,8.60611508 C15.695473,9.5252622 15.2769008,10.4071334 14.7151721,11.251755 C14.1534434,12.0963767 13.484815,12.8433943 12.709267,13.4928303 C11.933719,14.1422663 10.9987265,14.6603878 9.90426154,15.0472104 C8.80979657,15.4340329 7.63924398,15.6274413 6.39256865,15.6274413 C4.42833019,15.6274413 2.63082529,15.1128685 1,14.0837077 L1,14.0837077 Z" fill="#FFFFFF"></path>
                            </g>
                        </g>
                    </g>
                </g>
            </g>
        </g>
    </g>
</svg>