<?xml version="1.0" encoding="UTF-8"?>
<svg width="17px" height="13px" viewBox="0 0 17 13" version="1.1" xmlns="http://www.w3.org/2000/svg" xmlns:xlink="http://www.w3.org/1999/xlink">
    <!-- Generator: Sketch 52.2 (67145) - http://www.bohemiancoding.com/sketch -->
    <title>twitter</title>
    <desc>Created with Sketch.</desc>
    <g id="Page-1" stroke="none" stroke-width="1" fill="none" fill-rule="evenodd">
        <g id="Route-4---Expanded-Copy-2" transform="translate(-830.000000, -920.000000)" fill="#FFFFFF" fill-rule="nonzero">
            <g id="Group-11" transform="translate(0.000000, 656.000000)">
                <g id="Group-10" transform="translate(761.000000, 194.000000)">
                    <g id="Group-5">
                        <g id="Group-7" transform="translate(62.000000, 61.000000)">
                            <path d="M7,20.3784787 C7.23887844,20.4052125 7.50505328,20.4185791 7.79853251,20.4185791 C9.33417962,20.4185791 10.7025913,19.9574295 11.9038086,19.0351165 C11.1871733,19.0217496 10.5456237,18.8062123 9.97914051,18.3884981 C9.41265735,17.9707839 9.02363258,17.4377885 8.81205454,16.789496 C9.03728278,16.8229132 9.24544516,16.8396215 9.43654791,16.8396215 C9.73002714,16.8396215 10.0200895,16.8028632 10.3067436,16.7293455 C9.54233258,16.5756266 8.90931421,16.2030311 8.40766949,15.6115478 C7.90602476,15.0200644 7.65520616,14.3333525 7.65520616,13.5513915 L7.65520616,13.5112911 C8.11931284,13.7652614 8.61753755,13.9022696 9.14989521,13.9223199 C8.69943873,13.6282491 8.34112644,13.2439577 8.07494761,12.7694344 C7.80876877,12.294911 7.67568135,11.7802948 7.67568135,11.2255703 C7.67568135,10.6374287 7.82583126,10.0927375 8.12613559,9.59148039 C8.95197248,10.5873111 9.95695313,11.3842979 11.1411077,11.9824647 C12.3252622,12.5806315 13.5930052,12.913127 14.9443747,12.9799613 C14.8897739,12.725991 14.8624739,12.4787079 14.8624739,12.2381045 C14.8624739,11.3425252 15.184955,10.5789551 15.8299268,9.94737114 C16.4748986,9.31578722 17.2546543,9 18.1692175,9 C19.1247313,9 19.9300808,9.3408497 20.5852902,10.0225593 C21.3292259,9.88220734 22.028788,9.62155757 22.6839975,9.24060219 C22.4314688,10.0091964 21.9468941,10.6040125 21.2302588,11.0250685 C21.8649929,10.9582342 22.4997176,10.791151 23.1344517,10.5238139 C22.6771701,11.1787898 22.1243454,11.7368476 21.4759611,12.1980042 C21.4827862,12.2915721 21.4861987,12.431922 21.4861987,12.619058 C21.4861987,13.4879036 21.3565238,14.3550653 21.09717,15.2205692 C20.8378163,16.0860731 20.4436728,16.9164765 19.9147277,17.7118044 C19.3857826,18.5071323 18.7561767,19.2105525 18.0258912,19.8220862 C17.2956056,20.4336198 16.4151812,20.9215027 15.3845913,21.2857495 C14.3540015,21.6499963 13.2517646,21.832117 12.0778477,21.832117 C10.2282461,21.832117 8.53564712,21.3475758 7,20.3784787 L7,20.3784787 Z" id="twitter"></path>
                        </g>
                    </g>
                </g>
            </g>
        </g>
    </g>
</svg>