<?xml version="1.0" encoding="UTF-8" standalone="no"?>
<svg width="23px" height="22px" viewBox="0 0 23 22" version="1.1" xmlns="http://www.w3.org/2000/svg" xmlns:xlink="http://www.w3.org/1999/xlink">
    <!-- Generator: Sketch 47 (45396) - http://www.bohemiancoding.com/sketch -->
    <title>Fill 5114 + Fill 5115 + Fill 5116</title>
    <desc>Created with Sketch.</desc>
    <defs></defs>
    <g id="Explore" stroke="none" stroke-width="1" fill="none" fill-rule="evenodd">
        <g transform="translate(-59.000000, -113.000000)" id="Fill-5114-+-Fill-5115-+-Fill-5116" fill="#9B9B9B">
            <g transform="translate(59.000000, 113.000000)">
                <path d="M14.1990756,0.96478816 C9.91555556,0.96478816 6.43018667,4.37190137 6.43018667,8.56379458 C6.43018667,12.7564878 9.91555556,16.163601 14.1990756,16.163601 C18.4834133,16.163601 21.9679644,12.7564878 21.9679644,8.56379458 C21.9679644,4.37190137 18.4834133,0.96478816 14.1990756,0.96478816 L14.1990756,0.96478816 Z M14.1990756,16.9635806 C9.46414222,16.9635806 5.61240889,13.1964766 5.61240889,8.56379458 C5.61240889,3.93191257 9.46414222,0.164008559 14.1990756,0.164008559 C18.9331911,0.164008559 22.7857422,3.93191257 22.7857422,8.56379458 C22.7857422,13.1964766 18.9331911,16.9635806 14.1990756,16.9635806 L14.1990756,16.9635806 Z" id="Fill-5114"></path>
                <path d="M0.910186667,21.9642532 C0.805511111,21.9642532 0.700835556,21.9242542 0.621511111,21.8442563 C0.461226667,21.6922601 0.461226667,21.4354667 0.621511111,21.2834706 L8.12789333,13.9404576 C8.28817778,13.7804617 8.54659556,13.7804617 8.70606222,13.9404576 C8.86634667,14.0916538 8.86634667,14.3476472 8.70606222,14.4996434 L1.19968,21.8442563 C1.11953778,21.9242542 1.01486222,21.9642532 0.910186667,21.9642532" id="Fill-5115"></path>
            </g>
        </g>
    </g>
</svg>